<?xml version="1.0" encoding="UTF-8"?>
<svg id="Livello_1" xmlns="http://www.w3.org/2000/svg" version="1.1" xmlns:xlink="http://www.w3.org/1999/xlink" viewBox="0 0 2000 2000">
  <!-- Generator: Adobe Illustrator 29.0.0, SVG Export Plug-In . SVG Version: 2.1.0 Build 186)  -->
  <defs>
    <style>
      .st0 {
        fill: url(#Sfumatura_senza_nome_6);
      }
    </style>
    <linearGradient id="Sfumatura_senza_nome_6" data-name="Sfumatura senza nome 6" x1="0" y1="0" x2="2000" y2="2000" gradientUnits="userSpaceOnUse">
      <stop offset="0" stop-color="#009dff"/>
      <stop offset="1" stop-color="#26c3ff"/>
    </linearGradient>
  </defs>
  <path class="st0" d="M1346.32,1188.31v-161.26c0-26.5,10.64-51.9,29.53-70.49l541.73-533.18c52.73-51.9,82.43-122.79,82.43-196.78V0H0v58.2c0,156.87,127.17,284.05,284.05,284.05h1291.15c7.45,0,8.15,10.91.76,11.87l-183.38,23.74c-46.15,5.97-89.05,26.98-122.07,59.77l-237.24,235.6c-18.7,18.57-29.21,43.83-29.21,70.18v102.64c0,54.62-44.28,98.9-98.9,98.9h-106.36c-25.14,0-49.34,9.57-67.67,26.78L87.18,1575.94C31.56,1628.13,0,1701.01,0,1777.29v222.71h2000v-58.21c0-156.87-127.17-284.05-284.05-284.05H455.2c-7.45,0-8.15-10.91-.76-11.87l183.9-23.81c45.83-5.93,88.46-26.69,121.4-59.11l251.3-247.34c18.5-18.21,43.42-28.41,69.37-28.41h167.01c54.62,0,98.9-44.28,98.9-98.9Z"/>
</svg>